<?xml version="1.0" encoding="utf-8"?>
<!-- Generator: Adobe Illustrator 18.1.0, SVG Export Plug-In . SVG Version: 6.00 Build 0)  -->
<svg version="1.1" id="Layer_1" xmlns="http://www.w3.org/2000/svg" xmlns:xlink="http://www.w3.org/1999/xlink" x="0px" y="0px"
	 viewBox="0 0 500 500" enable-background="new 0 0 500 500" xml:space="preserve">
<g>
	<path fill="#010101" d="M241.3,135.1h17.3c6.8,0,12.3-5.5,12.3-12.3V12.3C271,5.6,265.4,0,258.7,0h-17.3C234.6,0,229,5.6,229,12.3
		v110.5C229,129.5,234.6,135.1,241.3,135.1z"/>
	<path fill="#010101" d="M168.3,150.2c3.4,5.8,10.9,7.9,16.7,4.5l14.9-8.7c5.9-3.4,7.9-10.9,4.5-16.7l-55.2-95.7
		c-3.4-5.8-10.9-7.8-16.7-4.5l-14.9,8.7c-5.8,3.4-7.9,10.9-4.5,16.7L168.3,150.2z"/>
	<path fill="#010101" d="M33.7,149.2l95.7,55.2c5.8,3.4,13.4,1.4,16.7-4.5l8.7-14.9c3.4-5.9,1.4-13.4-4.5-16.7l-95.7-55.2
		c-5.9-3.4-13.4-1.4-16.7,4.5l-8.7,14.9C25.9,138.3,27.9,145.8,33.7,149.2z"/>
	<path fill="#010101" d="M135.1,258.6v-17.3c0-6.8-5.5-12.3-12.3-12.3H12.4c-6.8,0-12.3,5.5-12.3,12.3v17.3
		c0,6.8,5.5,12.3,12.3,12.3h110.5C129.5,270.9,135.1,265.4,135.1,258.6z"/>
	<path fill="#010101" d="M154.8,315l-8.7-14.9c-3.4-5.9-10.9-7.9-16.7-4.5l-95.7,55.2c-5.8,3.4-7.8,10.9-4.5,16.7l8.7,14.9
		c3.4,5.9,10.9,7.9,16.7,4.5l95.7-55.2C156.1,328.3,158.2,320.8,154.8,315z"/>
	<path fill="#010101" d="M200.1,353.9l-14.9-8.7c-5.9-3.4-13.4-1.4-16.7,4.5l-55.2,95.7c-3.4,5.9-1.4,13.4,4.5,16.8l14.9,8.7
		c5.9,3.4,13.4,1.4,16.7-4.5l55.2-95.7C207.8,364.8,205.8,357.3,200.1,353.9z"/>
	<path fill="#010101" d="M258.7,364.9h-17.3c-6.8,0-12.3,5.5-12.3,12.3v110.5c0,6.8,5.5,12.3,12.3,12.3h17.3
		c6.8,0,12.3-5.5,12.3-12.3V377.2C271,370.4,265.4,364.9,258.7,364.9z"/>
	<path fill="#010101" d="M331.7,349.6c-3.4-5.8-10.9-7.9-16.7-4.5l-14.9,8.7c-5.9,3.4-7.9,10.9-4.5,16.7l55.2,95.7
		c3.4,5.9,10.9,7.9,16.8,4.5l14.9-8.7c5.9-3.4,7.9-10.9,4.5-16.7L331.7,349.6z"/>
	<path fill="#010101" d="M466.3,350.7l-95.7-55.2c-5.8-3.4-13.3-1.4-16.7,4.5l-8.7,14.9c-3.4,5.9-1.4,13.4,4.5,16.7l95.7,55.2
		c5.9,3.4,13.4,1.4,16.8-4.5l8.7-14.9C474.1,361.7,472.1,354.1,466.3,350.7z"/>
	<path fill="#010101" d="M487.6,229H377.1c-6.8,0-12.3,5.5-12.3,12.3v17.3c0,6.8,5.5,12.3,12.3,12.3h110.5c6.8,0,12.3-5.5,12.3-12.3
		v-17.3C499.9,234.6,494.4,229,487.6,229z"/>
	<path fill="#010101" d="M345.2,185l8.7,14.9c3.4,5.9,10.9,7.9,16.7,4.5l95.7-55.2c5.9-3.4,7.9-10.9,4.5-16.7l-8.7-14.9
		c-3.4-5.9-10.9-7.9-16.7-4.5l-95.7,55.2C343.9,171.7,341.8,179.2,345.2,185z"/>
	<path fill="#010101" d="M299.9,146.1l14.9,8.7c5.9,3.4,13.4,1.4,16.7-4.5l55.2-95.7c3.4-5.9,1.4-13.4-4.5-16.7l-14.8-8.7
		c-5.9-3.4-13.4-1.4-16.7,4.5l-55.2,95.7C292.2,135.2,294.2,142.7,299.9,146.1z"/>
</g>
</svg>
